<?xml version="1.0" encoding="us-ascii" standalone="no"?><svg xmlns="http://www.w3.org/2000/svg" xmlns:xlink="http://www.w3.org/1999/xlink" contentStyleType="text/css" height="954px" preserveAspectRatio="none" style="width:1512px;height:954px;background:#FFFFFF;" version="1.1" viewBox="0 0 1512 954" width="1512px" zoomAndPan="magnify"><defs/><g><!--cluster GdDocDir--><g id="cluster_GdDocDir"><path d="M421.5,484 L477.5,484 A3.75,3.75 0 0 1 480,486.5 L487,506.2969 L738.5,506.2969 A2.5,2.5 0 0 1 741,508.7969 L741,944.5 A2.5,2.5 0 0 1 738.5,947 L421.5,947 A2.5,2.5 0 0 1 419,944.5 L419,486.5 A2.5,2.5 0 0 1 421.5,484 " fill="none" style="stroke:#000000;stroke-width:1.5;"/><line style="stroke:#000000;stroke-width:1.5;" x1="419" x2="487" y1="506.2969" y2="506.2969"/><text fill="#000000" font-family="sans-serif" font-size="14" font-weight="bold" lengthAdjust="spacing" textLength="55" x="423" y="498.9951">gd-doc</text></g><!--cluster TemplatesDir--><g id="cluster_TemplatesDir"><path d="M507.5,535 L586.5,535 A3.75,3.75 0 0 1 589,537.5 L596,557.2969 L652.5,557.2969 A2.5,2.5 0 0 1 655,559.7969 L655,710.5 A2.5,2.5 0 0 1 652.5,713 L507.5,713 A2.5,2.5 0 0 1 505,710.5 L505,537.5 A2.5,2.5 0 0 1 507.5,535 " fill="none" style="stroke:#000000;stroke-width:1.5;"/><line style="stroke:#000000;stroke-width:1.5;" x1="505" x2="596" y1="557.2969" y2="557.2969"/><text fill="#000000" font-family="sans-serif" font-size="14" font-weight="bold" lengthAdjust="spacing" textLength="78" x="509" y="549.9951">templates</text></g><!--cluster TemplateLayoutDir--><g id="cluster_TemplateLayoutDir"><path d="M539.5,586 L588.5,586 A3.75,3.75 0 0 1 591,588.5 L598,608.2969 L620.5,608.2969 A2.5,2.5 0 0 1 623,610.7969 L623,670.5 A2.5,2.5 0 0 1 620.5,673 L539.5,673 A2.5,2.5 0 0 1 537,670.5 L537,588.5 A2.5,2.5 0 0 1 539.5,586 " fill="none" style="stroke:#000000;stroke-width:1.5;"/><line style="stroke:#000000;stroke-width:1.5;" x1="537" x2="598" y1="608.2969" y2="608.2969"/><text fill="#000000" font-family="sans-serif" font-size="14" font-weight="bold" lengthAdjust="spacing" textLength="48" x="541" y="600.9951">layout</text></g><!--cluster TreeSitters--><g id="cluster_TreeSitters"><path d="M445.5,745 L536.5,745 A3.75,3.75 0 0 1 539,747.5 L546,767.2969 L714.5,767.2969 A2.5,2.5 0 0 1 717,769.7969 L717,920.5 A2.5,2.5 0 0 1 714.5,923 L445.5,923 A2.5,2.5 0 0 1 443,920.5 L443,747.5 A2.5,2.5 0 0 1 445.5,745 " fill="none" style="stroke:#000000;stroke-width:1.5;"/><line style="stroke:#000000;stroke-width:1.5;" x1="443" x2="546" y1="767.2969" y2="767.2969"/><text fill="#000000" font-family="sans-serif" font-size="14" font-weight="bold" lengthAdjust="spacing" textLength="90" x="447" y="759.9951">tree-sitters</text></g><!--cluster GodotDir--><g id="cluster_GodotDir"><path d="M1030,546 L1183,546 A3.75,3.75 0 0 1 1185.5,548.5 L1192.5,568.2969 L1193,568.2969 A2.5,2.5 0 0 1 1195.5,570.7969 L1195.5,772.5 A2.5,2.5 0 0 1 1193,775 L1030,775 A2.5,2.5 0 0 1 1027.5,772.5 L1027.5,548.5 A2.5,2.5 0 0 1 1030,546 " fill="none" style="stroke:#000000;stroke-width:1.5;"/><line style="stroke:#000000;stroke-width:1.5;" x1="1027.5" x2="1192.5" y1="568.2969" y2="568.2969"/><text fill="#000000" font-family="sans-serif" font-size="14" font-weight="bold" lengthAdjust="spacing" textLength="152" x="1031.5" y="560.9951">your_godot_project</text></g><!--cluster MyDir--><g id="cluster_MyDir"><path d="M1321.5,6 L1379.5,6 A3.75,3.75 0 0 1 1382,8.5 L1389,28.2969 L1502.5,28.2969 A2.5,2.5 0 0 1 1505,30.7969 L1505,455.5 A2.5,2.5 0 0 1 1502.5,458 L1321.5,458 A2.5,2.5 0 0 1 1319,455.5 L1319,8.5 A2.5,2.5 0 0 1 1321.5,6 " fill="none" style="stroke:#000000;stroke-width:1.5;"/><line style="stroke:#000000;stroke-width:1.5;" x1="1319" x2="1389" y1="28.2969" y2="28.2969"/><text fill="#000000" font-family="sans-serif" font-size="14" font-weight="bold" lengthAdjust="spacing" textLength="57" x="1323" y="20.9951">doc_dir</text></g><!--cluster LayoutDir--><g id="cluster_LayoutDir"><path d="M1371.5,57 L1420.5,57 A3.75,3.75 0 0 1 1423,59.5 L1430,79.2969 L1452.5,79.2969 A2.5,2.5 0 0 1 1455,81.7969 L1455,141.5 A2.5,2.5 0 0 1 1452.5,144 L1371.5,144 A2.5,2.5 0 0 1 1369,141.5 L1369,59.5 A2.5,2.5 0 0 1 1371.5,57 " fill="none" style="stroke:#000000;stroke-width:1.5;"/><line style="stroke:#000000;stroke-width:1.5;" x1="1369" x2="1430" y1="79.2969" y2="79.2969"/><text fill="#000000" font-family="sans-serif" font-size="14" font-weight="bold" lengthAdjust="spacing" textLength="48" x="1373" y="71.9951">layout</text></g><!--cluster ContentDir--><g id="cluster_ContentDir"><path d="M1361.5,287 L1423.5,287 A3.75,3.75 0 0 1 1426,289.5 L1433,309.2969 L1462.5,309.2969 A2.5,2.5 0 0 1 1465,311.7969 L1465,407.5 A2.5,2.5 0 0 1 1462.5,410 L1361.5,410 A2.5,2.5 0 0 1 1359,407.5 L1359,289.5 A2.5,2.5 0 0 1 1361.5,287 " fill="none" style="stroke:#000000;stroke-width:1.5;"/><line style="stroke:#000000;stroke-width:1.5;" x1="1359" x2="1433" y1="309.2969" y2="309.2969"/><text fill="#000000" font-family="sans-serif" font-size="14" font-weight="bold" lengthAdjust="spacing" textLength="61" x="1363" y="301.9951">content</text></g><!--cluster OutputDir--><g id="cluster_OutputDir"><path d="M1371.5,168 L1424.5,168 A3.75,3.75 0 0 1 1427,170.5 L1434,190.2969 L1452.5,190.2969 A2.5,2.5 0 0 1 1455,192.7969 L1455,252.5 A2.5,2.5 0 0 1 1452.5,255 L1371.5,255 A2.5,2.5 0 0 1 1369,252.5 L1369,170.5 A2.5,2.5 0 0 1 1371.5,168 " fill="none" style="stroke:#000000;stroke-width:1.5;"/><line style="stroke:#000000;stroke-width:1.5;" x1="1369" x2="1434" y1="190.2969" y2="190.2969"/><text fill="#000000" font-family="sans-serif" font-size="14" font-weight="bold" lengthAdjust="spacing" textLength="52" x="1373" y="182.9951">output</text></g><!--entity TemplateHTML--><g id="elem_TemplateHTML"><path d="M553,623.35 L553,654.6469 A2.5,2.5 0 0 0 555.5,657.1469 L604.5,657.1469 A2.5,2.5 0 0 0 607,654.6469 L607,630.85 L597,620.85 L555.5,620.85 A2.5,2.5 0 0 0 553,623.35 " fill="#F1F1F1" style="stroke:#181818;stroke-width:0.5;"/><path d="M597,620.85 L597,628.35 A2.5,2.5 0 0 0 599.5,630.85 L607,630.85 " fill="#F1F1F1" style="stroke:#181818;stroke-width:0.5;"/><text fill="#000000" font-family="sans-serif" font-size="14" lengthAdjust="spacing" textLength="34" x="563" y="643.8451">.html</text></g><!--entity TreeSitterScript--><g id="elem_TreeSitterScript"><rect fill="#98FB98" height="46.2969" rx="2.5" ry="2.5" style="stroke:#181818;stroke-width:0.5;" width="183" x="488.5" y="779.85"/><rect fill="#98FB98" height="10" style="stroke:#181818;stroke-width:0.5;" width="15" x="651.5" y="784.85"/><rect fill="#98FB98" height="2" style="stroke:#181818;stroke-width:0.5;" width="4" x="649.5" y="786.85"/><rect fill="#98FB98" height="2" style="stroke:#181818;stroke-width:0.5;" width="4" x="649.5" y="790.85"/><text fill="#000000" font-family="sans-serif" font-size="14" font-weight="bold" lengthAdjust="spacing" textLength="143" x="503.5" y="812.8451">gdscript.(so|dylib)</text></g><!--entity TreeSitterResource--><g id="elem_TreeSitterResource"><rect fill="#98FB98" height="46.2969" rx="2.5" ry="2.5" style="stroke:#181818;stroke-width:0.5;" width="242" x="459" y="860.85"/><rect fill="#98FB98" height="10" style="stroke:#181818;stroke-width:0.5;" width="15" x="681" y="865.85"/><rect fill="#98FB98" height="2" style="stroke:#181818;stroke-width:0.5;" width="4" x="679" y="867.85"/><rect fill="#98FB98" height="2" style="stroke:#181818;stroke-width:0.5;" width="4" x="679" y="871.85"/><text fill="#000000" font-family="sans-serif" font-size="14" font-weight="bold" lengthAdjust="spacing" textLength="202" x="474" y="893.8451">godot-resource.(so|dylib)</text></g><!--entity GodotScene--><g id="elem_GodotScene"><path d="M1084.5,654.35 L1084.5,685.6469 A2.5,2.5 0 0 0 1087,688.1469 L1136,688.1469 A2.5,2.5 0 0 0 1138.5,685.6469 L1138.5,661.85 L1128.5,651.85 L1087,651.85 A2.5,2.5 0 0 0 1084.5,654.35 " fill="#F1F1F1" style="stroke:#181818;stroke-width:0.5;"/><path d="M1128.5,651.85 L1128.5,659.35 A2.5,2.5 0 0 0 1131,661.85 L1138.5,661.85 " fill="#F1F1F1" style="stroke:#181818;stroke-width:0.5;"/><text fill="#000000" font-family="sans-serif" font-size="14" lengthAdjust="spacing" textLength="34" x="1094.5" y="674.8451">.tscn</text></g><!--entity GodotScript--><g id="elem_GodotScript"><path d="M1090.5,725.35 L1090.5,756.6469 A2.5,2.5 0 0 0 1093,759.1469 L1130,759.1469 A2.5,2.5 0 0 0 1132.5,756.6469 L1132.5,732.85 L1122.5,722.85 L1093,722.85 A2.5,2.5 0 0 0 1090.5,725.35 " fill="#F1F1F1" style="stroke:#181818;stroke-width:0.5;"/><path d="M1122.5,722.85 L1122.5,730.35 A2.5,2.5 0 0 0 1125,732.85 L1132.5,732.85 " fill="#F1F1F1" style="stroke:#181818;stroke-width:0.5;"/><text fill="#000000" font-family="sans-serif" font-size="14" lengthAdjust="spacing" textLength="22" x="1100.5" y="745.8451">.gd</text></g><!--entity GodotResource--><g id="elem_GodotResource"><path d="M1086,583.35 L1086,614.6469 A2.5,2.5 0 0 0 1088.5,617.1469 L1134.5,617.1469 A2.5,2.5 0 0 0 1137,614.6469 L1137,590.85 L1127,580.85 L1088.5,580.85 A2.5,2.5 0 0 0 1086,583.35 " fill="#F1F1F1" style="stroke:#181818;stroke-width:0.5;"/><path d="M1127,580.85 L1127,588.35 A2.5,2.5 0 0 0 1129.5,590.85 L1137,590.85 " fill="#F1F1F1" style="stroke:#181818;stroke-width:0.5;"/><text fill="#000000" font-family="sans-serif" font-size="14" lengthAdjust="spacing" textLength="31" x="1096" y="603.8451">.tres</text></g><!--entity LayoutHTML--><g id="elem_LayoutHTML"><path d="M1385,94.35 L1385,125.6469 A2.5,2.5 0 0 0 1387.5,128.1469 L1436.5,128.1469 A2.5,2.5 0 0 0 1439,125.6469 L1439,101.85 L1429,91.85 L1387.5,91.85 A2.5,2.5 0 0 0 1385,94.35 " fill="#F1F1F1" style="stroke:#181818;stroke-width:0.5;"/><path d="M1429,91.85 L1429,99.35 A2.5,2.5 0 0 0 1431.5,101.85 L1439,101.85 " fill="#F1F1F1" style="stroke:#181818;stroke-width:0.5;"/><text fill="#000000" font-family="sans-serif" font-size="14" lengthAdjust="spacing" textLength="34" x="1395" y="114.8451">.html</text></g><!--entity ContentAdoc--><g id="elem_ContentAdoc"><path d="M1383,332.35 L1383,363.6469 A2.5,2.5 0 0 0 1385.5,366.1469 L1438.5,366.1469 A2.5,2.5 0 0 0 1441,363.6469 L1441,339.85 L1431,329.85 L1385.5,329.85 A2.5,2.5 0 0 0 1383,332.35 " fill="#F1F1F1" style="stroke:#181818;stroke-width:0.5;"/><path d="M1431,329.85 L1431,337.35 A2.5,2.5 0 0 0 1433.5,339.85 L1441,339.85 " fill="#F1F1F1" style="stroke:#181818;stroke-width:0.5;"/><text fill="#000000" font-family="sans-serif" font-size="14" lengthAdjust="spacing" textLength="38" x="1393" y="352.8451">.adoc</text></g><!--entity OutputHTML--><g id="elem_OutputHTML"><path d="M1385,205.35 L1385,236.6469 A2.5,2.5 0 0 0 1387.5,239.1469 L1436.5,239.1469 A2.5,2.5 0 0 0 1439,236.6469 L1439,212.85 L1429,202.85 L1387.5,202.85 A2.5,2.5 0 0 0 1385,205.35 " fill="#F1F1F1" style="stroke:#181818;stroke-width:0.5;"/><path d="M1429,202.85 L1429,210.35 A2.5,2.5 0 0 0 1431.5,212.85 L1439,212.85 " fill="#F1F1F1" style="stroke:#181818;stroke-width:0.5;"/><text fill="#000000" font-family="sans-serif" font-size="14" lengthAdjust="spacing" textLength="34" x="1395" y="225.8451">.html</text></g><!--entity GdDocInstallCommand--><g id="elem_GdDocInstallCommand"><rect fill="#FFC0CB" height="36.2969" rx="2.5" ry="2.5" style="stroke:#181818;stroke-width:0.5;" width="141" x="231" y="431.85"/><text fill="#000000" font-family="sans-serif" font-size="14" font-weight="bold" lengthAdjust="spacing" textLength="121" x="241" y="454.8451">$ gd-doc install</text></g><!--entity GdDocUpdateCommand--><g id="elem_GdDocUpdateCommand"><rect fill="#98FB98" height="36.2969" rx="2.5" ry="2.5" style="stroke:#181818;stroke-width:0.5;" width="70" x="545" y="360.85"/><text fill="#000000" font-family="sans-serif" font-size="14" font-weight="bold" lengthAdjust="spacing" textLength="50" x="555" y="383.8451">$ rake</text></g><!--entity Parser--><g id="elem_Parser"><ellipse cx="908" cy="732.85" fill="#98FB98" rx="12" ry="12" style="stroke:#181818;stroke-width:0.5;"/><polygon fill="#181818" points="904,720.85,910,715.85,908,720.85,910,725.85,904,720.85" style="stroke:#181818;stroke-width:1.0;"/><text fill="#000000" font-family="sans-serif" font-size="14" lengthAdjust="spacing" textLength="102" x="857" y="761.8451">GdDoc::Parser</text></g><!--entity Formatter--><g id="elem_Formatter"><ellipse cx="1111.5" cy="809.85" fill="#98FB98" rx="12" ry="12" style="stroke:#181818;stroke-width:0.5;"/><polygon fill="#181818" points="1107.5,797.85,1113.5,792.85,1111.5,797.85,1113.5,802.85,1107.5,797.85" style="stroke:#181818;stroke-width:1.0;"/><text fill="#000000" font-family="sans-serif" font-size="14" lengthAdjust="spacing" textLength="125" x="1049" y="838.8451">GdDoc::Formatter</text></g><!--entity Nanoc--><g id="elem_Nanoc"><ellipse cx="908" cy="293.85" fill="#87CEFA" rx="12" ry="12" style="stroke:#181818;stroke-width:0.5;"/><polygon fill="#181818" points="904,281.85,910,276.85,908,281.85,910,286.85,904,281.85" style="stroke:#181818;stroke-width:1.0;"/><text fill="#000000" font-family="sans-serif" font-size="14" lengthAdjust="spacing" textLength="44" x="886" y="322.8451">Nanoc</text></g><!--entity Asciidoctor--><g id="elem_Asciidoctor"><ellipse cx="1111.5" cy="225.85" fill="#87CEFA" rx="12" ry="12" style="stroke:#181818;stroke-width:0.5;"/><polygon fill="#181818" points="1107.5,213.85,1113.5,208.85,1111.5,213.85,1113.5,218.85,1107.5,213.85" style="stroke:#181818;stroke-width:1.0;"/><text fill="#000000" font-family="sans-serif" font-size="14" lengthAdjust="spacing" textLength="76" x="1073.5" y="254.8451">Asciidoctor</text></g><!--entity Puma--><g id="elem_Puma"><ellipse cx="580" cy="293.85" fill="#87CEFA" rx="12" ry="12" style="stroke:#181818;stroke-width:0.5;"/><polygon fill="#181818" points="576,281.85,582,276.85,580,281.85,582,286.85,576,281.85" style="stroke:#181818;stroke-width:1.0;"/><text fill="#000000" font-family="sans-serif" font-size="14" lengthAdjust="spacing" textLength="39" x="560.5" y="322.8451">Puma</text></g><!--entity Browser--><g id="elem_Browser"><path d="M281,281.85 L281,305.85 M281,293.85 L298,293.85 " fill="none" style="stroke:#181818;stroke-width:0.5;"/><ellipse cx="310" cy="293.85" fill="#F1F1F1" rx="12" ry="12" style="stroke:#181818;stroke-width:0.5;"/><text fill="#000000" font-family="sans-serif" font-size="14" lengthAdjust="spacing" textLength="57" x="273" y="322.8451">Browser</text></g><!--entity User--><g id="elem_User"><ellipse cx="22" cy="349.35" fill="#F1F1F1" rx="8" ry="8" style="stroke:#181818;stroke-width:0.5;"/><path d="M22,357.35 L22,384.35 M9,365.35 L35,365.35 M22,384.35 L9,399.35 M22,384.35 L35,399.35 " fill="none" style="stroke:#181818;stroke-width:0.5;"/><text fill="#000000" font-family="sans-serif" font-size="14" lengthAdjust="spacing" textLength="32" x="6" y="413.8451">User</text></g><!--entity Kroki--><g id="elem_Kroki"><path d="M279.3029,188.2339 C282.813,181.5506 288.1141,183.2037 291.6503,188.2064 C293.7725,182.0646 299.2691,180.71 303.2588,186.3692 C306.4424,181.5842 311.2067,180.3503 314.4876,186.2671 C319.794,181.8284 324.2825,182.22 326.6858,189.3328 C335.5708,191.4743 337.1423,198.2722 330.3506,204.2621 C336.4597,211.1584 334.4992,215.3861 326.6118,218.6438 C324.8649,226.1975 319.0741,227.1343 313.935,222.045 C311.4109,227.5273 306.8288,228.7535 302.6728,223.8075 C297.5995,228.998 292.7551,227.8888 289.7754,221.4798 C285.6964,225.8709 281.6751,224.6587 279.5764,219.3891 C271.278,217.6997 268.8077,209.9175 274.608,203.7493 C269.2474,196.5994 270.4733,191.0899 279.3029,188.2339 " fill="#F1F1F1" style="stroke:#181818;stroke-width:0.5;"/><text fill="#000000" font-family="sans-serif" font-size="14" lengthAdjust="spacing" textLength="34" x="284.5" y="207.8451">Kroki</text></g><!--reverse link GdDocInstallCommand to TemplatesDir--><g id="link_GdDocInstallCommand_TemplatesDir"><path d="M306.8955,474.4157 C315.4755,517.7457 341.93,620.15 411,673 C425.855,684.3675 443.5731,692.0781 461.8455,697.2433 C470.9816,699.8259 480.2564,701.7721 489.381,703.2208 C493.9434,703.9452 498.4682,704.5452 502.9194,705.0383 C503.4758,705.0999 504.0311,705.1599 504.5851,705.2182 " fill="none" id="GdDocInstallCommand-backto-TemplatesDir" style="stroke:#FF0000;stroke-width:2.0;"/><polygon fill="#FF0000" points="305.73,468.53,303.5544,478.1356,306.7012,473.4348,311.402,476.5816,305.73,468.53" style="stroke:#FF0000;stroke-width:2.0;"/></g><!--link GdDocInstallCommand to MyDir--><g id="link_GdDocInstallCommand_MyDir"><path d="M372.39,450 C428.29,450 508.67,450 579,450 C579,450 579,450 1112.5,450 C1177.795,450 1251.1275,450 1308.7675,450 C1310.5688,450 1312.3547,450 1314.1246,450 C1315.0095,450 1315.8904,450 1316.7672,450 C1317.2057,450 1311.643,450 1312.0794,450 " fill="none" id="GdDocInstallCommand-to-MyDir" style="stroke:#FF0000;stroke-width:2.0;"/><polygon fill="#FF0000" points="1318.0794,450,1309.0794,446,1313.0794,450,1309.0794,454,1318.0794,450" style="stroke:#FF0000;stroke-width:2.0;"/><text fill="#000000" font-family="sans-serif" font-size="13" lengthAdjust="spacing" textLength="29" x="893.5" y="446.0669">cp -r</text></g><!--link GdDocUpdateCommand to Parser--><g id="link_GdDocUpdateCommand_Parser"><path d="M597.61,397.45 C651.85,457.67 819.7246,644.0917 881.0146,712.1417 " fill="none" id="GdDocUpdateCommand-to-Parser" style="stroke:#008000;stroke-width:2.0;"/><polygon fill="#008000" points="885.03,716.6,881.9791,707.2356,881.6838,712.8848,876.0347,712.5895,885.03,716.6" style="stroke:#008000;stroke-width:2.0;"/></g><!--link Parser to Formatter--><g id="link_Parser_Formatter"><path d="M959.33,760.23 C986.37,770.57 1014.3452,781.2583 1042.9752,792.1983 " fill="none" id="Parser-to-Formatter" style="stroke:#008000;stroke-width:2.0;"/><polygon fill="#008000" points="1048.58,794.34,1041.6007,787.391,1043.9094,792.5553,1038.7451,794.864,1048.58,794.34" style="stroke:#008000;stroke-width:2.0;"/></g><!--link TreeSitterScript to Parser--><g id="link_TreeSitterScript_Parser"><path d="M677.7043,784.6088 C737.4243,773.2488 801.5656,761.0509 850.7356,751.7009 " fill="none" id="TreeSitterScript-Parser" style="stroke:#008000;stroke-width:2.0;"/><polygon fill="#008000" points="671.81,785.73,681.3989,787.9777,676.7219,784.7956,679.904,780.1186,671.81,785.73" style="stroke:#008000;stroke-width:2.0;"/><polygon fill="#008000" points="856.63,750.58,847.0412,748.3317,851.718,751.514,848.5357,756.1909,856.63,750.58" style="stroke:#008000;stroke-width:2.0;"/></g><!--link TreeSitterResource to Parser--><g id="link_TreeSitterResource_Parser"><path d="M707.2559,858.9904 C723.5159,854.3104 733.99,850.45 749,844 C796.69,823.52 841.1246,792.5557 871.6846,769.1757 " fill="none" id="TreeSitterResource-Parser" style="stroke:#008000;stroke-width:2.0;"/><polygon fill="#008000" points="701.49,860.65,711.2453,862.0046,706.2949,859.267,709.0325,854.3167,701.49,860.65" style="stroke:#008000;stroke-width:2.0;"/><polygon fill="#008000" points="876.45,765.53,866.8715,767.8217,872.4789,768.5681,871.7325,774.1755,876.45,765.53" style="stroke:#008000;stroke-width:2.0;"/></g><!--reverse link Parser to GodotScene--><g id="link_Parser_GodotScene"><path d="M964.9887,721.2752 C1004.6187,707.3052 1052.62,690.39 1084.2,679.27 " fill="none" id="Parser-backto-GodotScene" style="stroke:#008000;stroke-width:2.0;"/><polygon fill="#008000" points="959.33,723.27,969.1479,724.0503,964.0456,721.6077,966.4882,716.5054,959.33,723.27" style="stroke:#008000;stroke-width:2.0;"/></g><!--reverse link Parser to GodotScript--><g id="link_Parser_GodotScript"><path d="M965.33,741 C1007.52,741 1059.62,741 1090.04,741 " fill="none" id="Parser-backto-GodotScript" style="stroke:#008000;stroke-width:2.0;"/><polygon fill="#008000" points="959.33,741,968.33,745,964.33,741,968.33,737,959.33,741" style="stroke:#008000;stroke-width:2.0;"/></g><!--reverse link Parser to GodotResource--><g id="link_Parser_GodotResource"><path d="M933.0846,711.8616 C953.6746,688.0516 983.71,656.85 1019.5,634 C1040.19,620.79 1066.63,611.32 1085.68,605.58 " fill="none" id="Parser-backto-GodotResource" style="stroke:#008000;stroke-width:2.0;"/><polygon fill="#008000" points="929.16,716.4,938.0726,712.2088,932.4305,712.618,932.0214,706.976,929.16,716.4" style="stroke:#008000;stroke-width:2.0;"/></g><!--link Formatter to ContentDir--><g id="link_Formatter_ContentDir"><path d="M1174.38,797.75 C1185.3,791.85 1195.65,784.38 1203.5,775 C1312.45,644.69 1170.1,511.77 1303,406 C1312.25,398.64 1323.4881,394.66 1335.1756,392.8422 C1341.0194,391.9333 1346.9755,391.5649 1352.8516,391.5849 C1354.3206,391.5899 1355.7846,391.6191 1357.2406,391.6703 C1357.6046,391.6831 1357.9681,391.6972 1358.3311,391.7127 C1358.5126,391.7205 1352.7004,391.4505 1352.8816,391.4589 " fill="none" id="Formatter-to-ContentDir" style="stroke:#008000;stroke-width:2.0;"/><polygon fill="#008000" points="1358.8751,391.7369,1350.0701,387.3242,1353.8805,391.5053,1349.6994,395.3156,1358.8751,391.7369" style="stroke:#008000;stroke-width:2.0;"/><text fill="#000000" font-family="sans-serif" font-size="13" lengthAdjust="spacing" textLength="60" x="1234" y="415.0669">Generate</text></g><!--link GdDocUpdateCommand to Nanoc--><g id="link_GdDocUpdateCommand_Nanoc"><path d="M615.23,372.44 C649.26,365.78 702.9,354.92 749,344 C798.16,332.35 849.5641,318.2246 879.8541,309.7046 " fill="none" id="GdDocUpdateCommand-to-Nanoc" style="stroke:#0000FF;stroke-width:2.0;"/><polygon fill="#0000FF" points="885.63,308.08,875.8831,306.6664,880.8168,309.4339,878.0493,314.3675,885.63,308.08" style="stroke:#0000FF;stroke-width:2.0;"/></g><!--reverse link Nanoc to LayoutHTML--><g id="link_Nanoc_LayoutHTML"><path d="M930.0859,273.0102 C949.7359,247.5502 980.43,213.08 1019.5,192 C1144.17,124.73 1318.76,112.6 1384.53,110.45 " fill="none" id="Nanoc-backto-LayoutHTML" style="stroke:#0000FF;stroke-width:2.0;"/><polygon fill="#0000FF" points="926.42,277.76,935.0854,273.0792,929.4749,273.8018,928.7523,268.1913,926.42,277.76" style="stroke:#0000FF;stroke-width:2.0;"/></g><!--reverse link Nanoc to ContentAdoc--><g id="link_Nanoc_ContentAdoc"><path d="M936.225,304.4975 C1016.005,311.8075 1291.74,337.07 1382.56,345.39 " fill="none" id="Nanoc-backto-ContentAdoc" style="stroke:#0000FF;stroke-width:2.0;"/><polygon fill="#0000FF" points="930.25,303.95,938.8475,308.7545,935.2291,304.4062,939.5774,300.7879,930.25,303.95" style="stroke:#0000FF;stroke-width:2.0;"/><text fill="#000000" font-family="sans-serif" font-size="13" lengthAdjust="spacing" textLength="52" x="1085.5" y="309.0669">Compile</text></g><!--link Nanoc to Asciidoctor--><g id="link_Nanoc_Asciidoctor"><path d="M930.18,294.85 C964.13,283.39 1025.495,262.6884 1067.575,248.4884 " fill="none" id="Nanoc-to-Asciidoctor" style="stroke:#0000FF;stroke-width:2.0;"/><polygon fill="#0000FF" points="1073.26,246.57,1063.4535,245.6576,1068.5225,248.1687,1066.0114,253.2377,1073.26,246.57" style="stroke:#0000FF;stroke-width:2.0;"/></g><!--link Asciidoctor to OutputHTML--><g id="link_Asciidoctor_OutputHTML"><path d="M1149.7,232.38 C1210.97,229.71 1325.5957,224.7216 1378.7657,222.4016 " fill="none" id="Asciidoctor-to-OutputHTML" style="stroke:#0000FF;stroke-width:2.0;"/><polygon fill="#0000FF" points="1384.76,222.14,1375.5942,218.5361,1379.7648,222.358,1375.9429,226.5285,1384.76,222.14" style="stroke:#0000FF;stroke-width:2.0;"/></g><!--reverse link Puma to Nanoc--><g id="link_Puma_Nanoc"><path d="M605.94,302 C662.87,302 826.27,302 885.92,302 " fill="none" id="Puma-backto-Nanoc" style="stroke:#0000FF;stroke-width:2.0;"/><polygon fill="#0000FF" points="599.94,302,608.94,306,604.94,302,608.94,298,599.94,302" style="stroke:#0000FF;stroke-width:2.0;"/><text fill="#000000" font-family="sans-serif" font-size="13" lengthAdjust="spacing" textLength="68" x="758" y="298.0669">Run server</text></g><!--link User to GdDocInstallCommand--><g id="link_User_GdDocInstallCommand"><path d="M38.19,389.49 C46.63,394.86 57.52,401.08 68,405 C120.76,424.71 177.6954,435.3963 224.7454,441.8363 " fill="none" id="User-to-GdDocInstallCommand" style="stroke:#181818;stroke-width:1.0;"/><polygon fill="#181818" points="230.69,442.65,222.3156,437.4665,225.7362,441.9719,221.2307,445.3925,230.69,442.65" style="stroke:#181818;stroke-width:1.0;"/></g><!--link User to GdDocUpdateCommand--><g id="link_User_GdDocUpdateCommand"><path d="M38.45,379 C113.17,379 431.76,379 538.69,379 " fill="none" id="User-to-GdDocUpdateCommand" style="stroke:#181818;stroke-width:1.0;"/><polygon fill="#181818" points="544.69,379,535.69,375,539.69,379,535.69,383,544.69,379" style="stroke:#181818;stroke-width:1.0;"/></g><!--link User to Browser--><g id="link_User_Browser"><path d="M38.23,368.62 C46.68,363.27 57.57,357.05 68,353 C139.09,325.43 222.5214,311.8939 266.9114,306.0439 " fill="none" id="User-to-Browser" style="stroke:#181818;stroke-width:1.0;"/><polygon fill="#181818" points="272.86,305.26,263.4145,302.4702,267.9029,305.9133,264.4598,310.4016,272.86,305.26" style="stroke:#181818;stroke-width:1.0;"/><text fill="#000000" font-family="sans-serif" font-size="13" lengthAdjust="spacing" textLength="131" x="69" y="314.0669">http://localhost:3001</text></g><!--link Browser to Puma--><g id="link_Browser_Puma"><path d="M330.28,302 C386.43,302 506.14,302 554,302 " fill="none" id="Browser-to-Puma" style="stroke:#181818;stroke-width:1.0;"/><polygon fill="#181818" points="560,302,551,298,555,302,551,306,560,302" style="stroke:#181818;stroke-width:1.0;"/></g><!--link Kroki to Browser--><g id="link_Kroki_Browser"><path d="M301.5,232.51 C301.5,247.89 301.5,255.95 301.5,271.53 " fill="none" id="Kroki-Browser" style="stroke:#181818;stroke-width:1.0;"/><polygon fill="#181818" points="301.5,226.51,297.5,235.51,301.5,231.51,305.5,235.51,301.5,226.51" style="stroke:#181818;stroke-width:1.0;"/><polygon fill="#181818" points="301.5,277.53,305.5,268.53,301.5,272.53,297.5,268.53,301.5,277.53" style="stroke:#181818;stroke-width:1.0;"/><text fill="#000000" font-family="sans-serif" font-size="13" lengthAdjust="spacing" textLength="100" x="240" y="256.5669">Parse PlantUML</text></g><!--SRC=[VLJBRjim4BphAnPq3-r1IOhU3Cj0cg1kKRiDulXiq29jiwP8WQ9Q6At_lNn9b1Gh1m7BdU5mkRFKNd925Q03IOdC4U0A5kHHvezCmTy4O1zmJOkIOqqhHtbfLWqj4Za-orhtM4kNYbH3Pfm2kZdgWlUONrzMIqUv9FvhZrUKfXNJcgfGWKci_Jgevh8efQ120vhjvWTIvOgL-kPz9V-HCsUx3uDzQuV3fCIS7anMN5EHHEfKqKhMAgVZMi-1qLUx99SaQMvWMg2sJczRAlcBvhv72vjfc-tRegjSH72TKq4ZU238b1b1UudELXKSScXJLhSEu_AMCEL8g_FGvevxGzU6ddayEDRrAfT2cmOwqeEFNwdWPjW2uTwi1p96l0ob_7JXU2aURqinjyM7ni9tu4SRcAWqvZoE-3UVU915WGKnrZ5nwcrK-4GZVLCICw6HtHfjxwia1-Heq-aJLXNr3VRXM-GlKXNOZf3ZjwkhMtvW4Rhc8fXmTZZgwdJUyPf6sdsLCsPkhAKNxQp7jZpL1VO5cs10sibQ4ApEW3uh-QUvMOWJx6JHfidR8Ccvh0cWxqgUcCkwA4autMlG4fJL1pE5vXKmAPBacX-pBEl_PoQAaglCB9k7KROKc9eHB25LAEZsZRFanXRVtx2oGAV_7dlrkm1Rrr3XoezWDdgElLTys32E-lD6uFQWXX1BjoTttft7JLSMvZXbEZ7MbJ1KpdGVpxBEAnyWMVVfUinstWYMvdMYmBEwlVbp6jsCPSJt6mXk3EqPdPgi-dCjmBJXDxNcsb63D9rVUyq3i7VPY8KXjif7hSlfxIsNEUP7MUdffxkxZoXf69PjYseJizGEiycwqROApY5uubZepMg9_WC0]--></g></svg>